<?xml version="1.0" encoding="UTF-8"?>
<svg width="332px" height="115px" viewBox="0 0 332 115" version="1.1" xmlns="http://www.w3.org/2000/svg" xmlns:xlink="http://www.w3.org/1999/xlink">
    <!-- Generator: Sketch 52.5 (67469) - http://www.bohemiancoding.com/sketch -->
    <title>Genesis Excavation - Logos.2</title>
    <desc>Created with Sketch.</desc>
    <g id="Page-1" stroke="none" stroke-width="1" fill="none" fill-rule="evenodd">
        <g id="Genesis-Excavation---Logos.2">
            <g id="Group" transform="translate(128.000000, 5.000000)" fill="#FFB71B">
                <polygon id="Path" points="0.8 6.41 6.8 0.41 22.5 0.41 28.5 6.41 28.5 22.51 18.9 22.51 18.9 10.61 16.9 8.61 12.4 8.61 10.4 10.61 10.4 66.21 12.4 68.21 16.9 68.21 18.9 66.21 18.9 45.41 14.1 45.41 14.1 36.81 28.5 36.81 28.5 70.41 22.5 76.41 6.8 76.41 0.8 70.41"></polygon>
                <polygon id="Path" points="34.6 0.4 58.3 0.4 58.3 8.6 44.2 8.6 44.2 33.8 56.5 33.8 56.5 42 44.2 42 44.2 68.2 58.5 68.2 58.5 76.4 34.6 76.4"></polygon>
                <polygon id="Path" points="63.6 0.4 74 0.4 85 53.1 85 0.4 93.7 0.4 93.7 76.4 83.3 76.4 72.3 24.5 72.3 76.4 63.6 76.4"></polygon>
                <polygon id="Path" points="100.3 0.4 124 0.4 124 8.6 109.9 8.6 109.9 33.8 122.2 33.8 122.2 42 109.9 42 109.9 68.2 124.2 68.2 124.2 76.4 100.3 76.4"></polygon>
                <polygon id="Path" points="145.1 10.41 143.1 8.41 139.6 8.41 137.6 10.41 137.6 31.81 139.6 33.81 149 33.81 155 39.81 155 70.41 149 76.41 133.8 76.41 127.8 70.41 127.8 54.51 137.4 54.51 137.4 66.41 139.4 68.41 143.4 68.41 145.4 66.41 145.4 44.01 143.4 42.01 134 42.01 128 36.01 128 6.41 134 0.41 148.7 0.41 154.7 6.41 154.7 22.41 145.1 22.41 145.1 10.41"></polygon>
                <polygon id="Path" points="160.7 0.4 170.3 0.4 170.3 76.4 160.7 76.4"></polygon>
                <polygon id="Path" points="193.3 10.41 191.3 8.41 187.8 8.41 185.8 10.41 185.8 31.81 187.8 33.81 197.2 33.81 203.2 39.81 203.2 70.41 197.2 76.41 182 76.41 176 70.41 176 54.51 185.6 54.51 185.6 66.41 187.6 68.41 191.6 68.41 193.6 66.41 193.6 44.01 191.6 42.01 182.2 42.01 176.2 36.01 176.2 6.41 182.2 0.41 196.9 0.41 202.9 6.41 202.9 22.41 193.3 22.41"></polygon>
            </g>
            <g id="Group" transform="translate(130.000000, 90.000000)" fill="#000000">
                <polygon id="Path" points="0.6 24 0.6 1.41 9.69 1.41 9.69 4.68 4.08 4.68 4.08 10.6 8.12 10.6 8.12 13.87 4.08 13.87 4.08 20.62 9.69 20.62 9.69 24"></polygon>
                <polygon id="Path" points="19.8 24 23.92 12.52 19.86 1.41 23.47 1.41 25.59 8.07 25.75 8.07 27.98 1.41 31.54 1.41 27.6 12.22 31.9 24 28.26 24 25.98 16.64 25.86 16.64 23.39 24"></polygon>
                <path d="M42.46,18.2 L42.46,6.62 C42.46,4.84 42.94,3.44 43.91,2.43 C44.88,1.42 46.22,0.91 47.93,0.91 C49.54,0.91 50.82,1.43 51.77,2.46 C52.71,3.5 53.18,4.91 53.18,6.7 L53.18,8.87 L49.6,8.87 L49.6,6.39 C49.6,5.61 49.45,5.02 49.15,4.63 C48.85,4.24 48.4,4.04 47.81,4.04 C47.22,4.04 46.77,4.24 46.47,4.63 C46.17,5.02 46.02,5.61 46.02,6.39 L46.02,19 C46.02,19.78 46.17,20.37 46.47,20.77 C46.77,21.17 47.22,21.36 47.81,21.36 C48.4,21.36 48.85,21.16 49.15,20.77 C49.45,20.37 49.6,19.79 49.6,19 L49.6,15.92 L53.18,15.92 L53.18,18.28 C53.18,20.26 52.71,21.79 51.78,22.86 C50.85,23.93 49.52,24.47 47.8,24.47 C46.04,24.47 44.71,23.94 43.81,22.88 C42.91,21.83 42.46,20.27 42.46,18.2 Z" id="Path"></path>
                <path d="M63.84,24 L67.56,1.41 L72.11,1.41 L75.81,24 L72.23,24 L71.53,19.11 L68.01,19.11 L67.26,24 L63.84,24 Z M68.45,15.91 L71.11,15.91 L69.92,6.47 L69.7,6.47 L68.45,15.91 Z" id="Shape" fill-rule="nonzero"></path>
                <path d="M85.61,1.41 L89.02,1.41 L91.1,14.79 C91.23,15.64 91.33,16.45 91.39,17.2 C91.45,17.96 91.48,18.72 91.48,19.49 L91.48,19.9 C91.51,18.91 91.56,17.98 91.63,17.11 C91.7,16.24 91.78,15.47 91.87,14.79 L93.89,1.41 L97.31,1.41 L93.31,24 L89.67,24 L85.61,1.41 Z" id="Path"></path>
                <path d="M107.05,24 L110.77,1.41 L115.32,1.41 L119.02,24 L115.44,24 L114.74,19.11 L111.22,19.11 L110.47,24 L107.05,24 Z M111.66,15.91 L114.32,15.91 L113.13,6.47 L112.91,6.47 L111.66,15.91 Z" id="Shape" fill-rule="nonzero"></path>
                <polygon id="Path" points="127.45 4.67 127.45 1.4 138.17 1.4 138.17 4.67 134.55 4.67 134.55 24 131.07 24 131.07 4.67"></polygon>
                <polygon id="Path" points="149.07 24 149.07 1.41 152.62 1.41 152.62 24"></polygon>
                <path d="M164.97,6.63 C164.97,4.85 165.45,3.45 166.42,2.44 C167.39,1.43 168.73,0.92 170.44,0.92 C172.05,0.92 173.33,1.44 174.28,2.47 C175.22,3.51 175.69,4.92 175.69,6.71 L175.69,18.29 C175.69,20.27 175.22,21.8 174.29,22.87 C173.36,23.94 172.03,24.48 170.31,24.48 C168.57,24.48 167.24,23.95 166.33,22.88 C165.42,21.81 164.96,20.25 164.96,18.2 L164.96,6.63 L164.97,6.63 Z M172.11,19.02 L172.11,6.41 C172.11,5.63 171.96,5.04 171.66,4.65 C171.36,4.26 170.91,4.06 170.32,4.06 C169.73,4.06 169.28,4.26 168.98,4.65 C168.68,5.04 168.53,5.63 168.53,6.41 L168.53,19.02 C168.53,19.8 168.68,20.39 168.98,20.79 C169.28,21.19 169.73,21.38 170.32,21.38 C170.91,21.38 171.36,21.18 171.66,20.79 C171.96,20.39 172.11,19.8 172.11,19.02 Z" id="Shape" fill-rule="nonzero"></path>
                <path d="M188.15,24 L188.15,1.41 L191.27,1.41 L195.69,14.91 C195.77,15.17 195.87,15.51 195.99,15.94 C196.11,16.37 196.23,16.83 196.36,17.32 C196.24,16.66 196.15,16.06 196.08,15.5 C196.01,14.94 195.97,14.53 195.97,14.27 L195.97,1.41 L199.24,1.41 L199.24,24 L195.97,24 L191.72,11.52 C191.7,11.47 191.67,11.39 191.64,11.29 C191.35,10.44 191.13,9.7 190.98,9.07 C191.1,9.86 191.2,10.52 191.27,11.05 C191.34,11.58 191.37,11.96 191.37,12.2 L191.37,24 L188.15,24 Z" id="Path"></path>
            </g>
            <g id="Group-2" fill="#000000">
                <path d="M112.890479,62.6510388 L112.685882,46.8348072 L57.8539068,46.8348072 C56.4751014,46.8525982 55.0874006,46.9504489 53.7441773,47.2617921 C46.4053747,48.9608361 40.4987505,54.8140871 39.3334376,62.3841732 C37.9457367,71.4487064 43.3808984,80.0328816 51.9739691,82.7371192 L71.793184,89.1596834 L68.1460215,85.325715 C66.2245895,83.3064323 65.2638735,80.5755082 65.495157,77.8001065 L65.9666195,72.2226165 C64.036292,72.0624972 62.5685315,70.3990352 62.6574867,68.4598122 L62.4617853,57.7940858 L112.890479,62.6510388 Z" id="Path"></path>
                <g id="Path-3">
                    <g id="Path-2">
                        <path d="M94.0319798,57.7851902 C94.0319798,69.6340207 92.7154431,80.5310306 90.4737725,90.164877 C80.8399261,92.4065476 69.9429162,93.7230843 58.0940858,93.7230843 C46.2452553,93.7230843 35.3482454,92.4065476 25.714399,90.164877 C23.4727284,80.5310306 22.1561917,69.6340207 22.1561917,57.7851902 C22.1561917,45.9363598 23.4727284,35.0393499 25.714399,25.4055035 C35.3482454,23.1638329 46.2452553,21.8472962 58.0940858,21.8472962 C69.9429162,21.8472962 80.8399261,23.1638329 90.4737725,25.4055035 C91.3366378,29.1238302 92.0660703,33.0378582 92.6353834,37.1209012 L114.224806,39.2024524 C114.02021,37.3343936 113.788926,35.4752303 113.52206,33.633858 C112.241106,24.7027576 110.24851,16.180851 107.58875,8.28163073 C99.6895295,5.63076627 91.1676229,3.63817016 82.2365225,2.34832 C74.4351529,1.22748469 66.3402313,0.640380485 58.0851902,0.640380485 C49.8301492,0.640380485 41.7352276,1.22748469 33.933858,2.34832 C25.0027576,3.62927464 16.480851,5.62187075 8.58163073,8.28163073 C5.93076627,16.180851 3.93817016,24.7027576 2.64832,33.633858 C1.52748469,41.4352276 0.940380485,49.5301492 0.940380485,57.7851902 C0.940380485,66.0402313 1.52748469,74.1351529 2.64832,81.9365225 C3.92927464,90.8676229 5.92187075,99.3895295 8.58163073,107.28875 C16.480851,109.939614 25.0027576,111.93221 33.933858,113.22206 C41.7352276,114.342896 49.8301492,114.93 58.0851902,114.93 C66.3402313,114.93 74.4351529,114.342896 82.2365225,113.22206 C91.1676229,111.941106 99.6895295,109.94851 107.58875,107.28875 C110.239614,99.3895295 112.23221,90.8676229 113.52206,81.9365225 C114.642896,74.1351529 115.23,66.0402313 115.23,57.7851902 C115.23,54.0935501 115.105463,50.4463876 114.874179,46.8259117 L93.6316815,46.8259117 C93.8896515,50.384119 94.0319798,54.0312815 94.0319798,57.7851902 Z" id="Path"></path>
                    </g>
                </g>
            </g>
        </g>
    </g>
</svg>