<?xml version="1.0" encoding="UTF-8"?>
<svg width="130px" height="129px" viewBox="0 0 130 129" version="1.1" xmlns="http://www.w3.org/2000/svg" xmlns:xlink="http://www.w3.org/1999/xlink">
    <!-- Generator: Sketch 52.5 (67469) - http://www.bohemiancoding.com/sketch -->
    <title>Group 4</title>
    <desc>Created with Sketch.</desc>
    <g id="Page-1" stroke="none" stroke-width="1" fill="none" fill-rule="evenodd">
        <g id="Group-4" fill="#FFB71B">
            <g id="Group-3">
                <g id="Path-3">
                    <g id="Path-2">
                        <path d="M105.4,64.69 C105.4,78.01 103.92,90.26 101.4,101.09 C90.57,103.61 78.32,105.09 65,105.09 C51.68,105.09 39.43,103.61 28.6,101.09 C26.08,90.26 24.6,78.01 24.6,64.69 C24.6,51.37 26.08,39.12 28.6,28.29 C39.43,25.77 51.68,24.29 65,24.29 C78.32,24.29 90.57,25.77 101.4,28.29 C102.37,32.47 103.19,36.87 103.83,41.46 L128.1,43.8 C127.87,41.7 127.61,39.61 127.31,37.54 C125.87,27.5 123.63,17.92 120.64,9.04 C111.76,6.06 102.18,3.82 92.14,2.37 C83.37,1.11 74.27,0.45 64.99,0.45 C55.71,0.45 46.61,1.11 37.84,2.37 C27.8,3.81 18.22,6.05 9.34,9.04 C6.36,17.92 4.12,27.5 2.67,37.54 C1.41,46.31 0.75,55.41 0.75,64.69 C0.75,73.97 1.41,83.07 2.67,91.84 C4.11,101.88 6.35,111.46 9.34,120.34 C18.22,123.32 27.8,125.56 37.84,127.01 C46.61,128.27 55.71,128.93 64.99,128.93 C74.27,128.93 83.37,128.27 92.14,127.01 C102.18,125.57 111.76,123.33 120.64,120.34 C123.62,111.46 125.86,101.88 127.31,91.84 C128.57,83.07 129.23,73.97 129.23,64.69 C129.23,60.54 129.09,56.44 128.83,52.37 L104.95,52.37 C105.24,56.37 105.4,60.47 105.4,64.69 Z" id="Path"></path>
                    </g>
                </g>
            </g>
            <path d="M126.6,70.16 L126.37,52.38 L64.73,52.38 C63.18,52.4 61.62,52.51 60.11,52.86 C51.86,54.77 45.22,61.35 43.91,69.86 C42.35,80.05 48.46,89.7 58.12,92.74 L80.4,99.96 L76.3,95.65 C74.14,93.38 73.06,90.31 73.32,87.19 L73.85,80.92 C71.68,80.74 70.03,78.87 70.13,76.69 L69.91,64.7 L126.6,70.16 Z" id="Path"></path>
        </g>
    </g>
</svg>