<svg xmlns="http://www.w3.org/2000/svg" viewBox="0 0 184.93 117.45"><defs><style>.cls-1{fill:#4d4d4d;fill-rule:evenodd;}</style></defs><title>Asset 6</title><g id="Layer_2" data-name="Layer 2"><g id="OBJECTS"><path class="cls-1" d="M105.16,1.19a9.15,9.15,0,0,1,10.36,4.24c2.17,4,1.18,6.31,1.58,8.88s.69,4.83.39,6.12.3,5.33-5.82,5.33S100.32,23.88,99,17.08,97,3.57,105.16,1.19Z"/><path class="cls-1" d="M60.28,117c-1.65-2.79.32-5.26.82-6.65s2.79-5.57,2.79-6.78a2.36,2.36,0,0,1,.89-1.84A15.28,15.28,0,0,0,65.29,96c-.25-3.67-2-9.51-1.51-13.52S65.64,74,66.27,71a84.5,84.5,0,0,1,2.63-9.2,19.06,19.06,0,0,1,4.3-7.12c2.08-2.14,6-4.35,6.17-6A17,17,0,0,0,78.72,44s-3.12,2.21-5.26,3.77S65,50.19,62.35,46.49a49.86,49.86,0,0,1-5.84-10.23c-1-2.63-3.52-5.75-3.91-8.27s-.69-4.51,0-5.25a2.7,2.7,0,0,1,2-.64,1.79,1.79,0,0,1,1-1,1.07,1.07,0,0,1,1.29.35A1.66,1.66,0,0,1,58,20.75a1.44,1.44,0,0,1,1.24.35s.55-.74,1.54,0A3.42,3.42,0,0,1,62,23s.94-.94,1.54.5,1.83,4.31.84,5.25-2.23,2.33-1.34,3.87,1.39,2.48,1.78,2.58,2.58,0,3.17.35a1.9,1.9,0,0,0,.89.4,7.63,7.63,0,0,1,2.38-1.34c1.44-.49,3-.94,3-.94a22.22,22.22,0,0,1,3-5.3c1.64-1.83,5.9-3.72,8.23-4a12.09,12.09,0,0,0,5.22-1.66C91.83,22,98,21.12,99,21s-.46-.53,0-5.74,13.77,2.6,14.6,7.72a5.51,5.51,0,0,0,4.54,4.14c2.17.39,6.12,2.47,6.22,4.83a25.55,25.55,0,0,1-.49,5.23,18.15,18.15,0,0,0,4.64-1.78,13.16,13.16,0,0,1,3.26-1.48s-3.06-1.28-2.57-3.55,1.48-3.95,2.07-4.14a1.12,1.12,0,0,1,1.09.39s.3-1.68,1.78-1.68,1.48.49,1.48.49a1.65,1.65,0,0,1,1.18.1c.69.3.95.16,1.55.4a1.65,1.65,0,0,1,.81,1,1.22,1.22,0,0,1,1.09.2c.48.4.32,1-.12,1.53s-.44,2.7-.32,4.19-1.69,3.51-3.1,4.84-6.37,5.08-9,7.22-9.07,5.56-9.07,5.56a7.89,7.89,0,0,1-2.71,3.07,24.37,24.37,0,0,0-4.15,3.74s10.15,1.19,14.18,1.84,6.76,1.31,7.89,2.2-.79.69-.79.69a5.89,5.89,0,0,1,3.26,3.31,9.93,9.93,0,0,1,.1,8.32c-1.31,2.92-2.92,8.42-4.43,10.8s-6.59,8.83-7.35,11.18-.91,3-.91,3,.3-.3,1.52.83,4.62,4.93,6.44,6,5.69,2.2,5.76,3.94,0,3.56-5.69,2.43-9.55-2.2-12.43-2.27-6.67-.08-7.28-3.18a11.44,11.44,0,0,1,.91-7c.68-1.74,1.67-1.14,1.67-1.14a37.55,37.55,0,0,0,2-6.22,26.78,26.78,0,0,0,.61-7,23.26,23.26,0,0,1,1.29-5.84s-.68.76-2-.15-13.26.45-18.12.53-8.26-.83-11.45.23a16.1,16.1,0,0,1-6.29.68L79.58,78.8a19.94,19.94,0,0,0-1.52,5.76c-.08,2.42-4.93,8-5,10.92a28.85,28.85,0,0,1-1.26,6.65s1.2-.13,1.14,1.46-2.34,5.57-2,7.66,1.33,5.26.32,6.21"/><polyline class="cls-1" points="184.79 34.43 0 22.69 0.13 20.63 184.93 32.37"/><path class="cls-1" d="M156.93,11.66c-6.2,0-11.22,9.19-11.22,20.54,0,11.16,4.87,20.25,10.93,20.53h0l4.54.16h0l.44,0c6.2,0,11.22-9.19,11.22-20.54s-5-20.42-11.11-20.53h0l-4.37-.15Z"/><path class="cls-1" d="M181.17,33.11c0-11.27-5-20.42-11.11-20.53h0l-4.37-.15-.44,0C159,12.41,154,21.6,154,32.95c0,11.16,4.87,20.25,10.93,20.53h0l4.54.16h0l.44,0c6.2,0,11.22-9.19,11.22-20.54"/><path class="cls-1" d="M27.3.31c-5.43.43-9.83,11.86-9.83,25.53,0,13.45,4.27,24.06,9.58,24h0l4-.12h.4c5.43-.43,9.83-11.86,9.83-25.53S36.91-.11,31.52.18h0L27.69.3Z"/><path class="cls-1" d="M19.26.14C13.83.57,9.43,12,9.43,25.67c0,13.45,4.27,24.06,9.58,24h0l4-.13h.4c5.43-.43,9.83-11.86,9.83-25.53S28.86-.29,23.48,0h0L19.65.12Z"/></g></g></svg>