<svg xmlns="http://www.w3.org/2000/svg" viewBox="0 0 162.5 227.03"><defs><style>.cls-1{fill:#4d4d4d;fill-rule:evenodd;}</style></defs><title>Asset 8</title><g id="Layer_2" data-name="Layer 2"><g id="OBJECTS"><path class="cls-1" d="M66.57,63c-3.43-1.83-8.3-2-10.95,1.14s-4.31,6.8-4.22,9.67.49,4.73.18,6.22.1,2.12.59,2.32-.32,1.76.77,2.1,1.43,2.36,1.54,3.73,2.54,2.9,5.79.41,7.62-6.34,8.89-9.52.69-4.36.69-4.36S72.57,67.17,66.57,63Z"/><path class="cls-1" d="M51.55,31.37s-.2-1-.8-1.31-1.46.46-1.46.46a.76.76,0,0,0-.91-.63C47.55,30,46.87,31,46.87,31a1.24,1.24,0,0,0-1.11-.43c-.69.11-1,1.06-1,1.06a1.43,1.43,0,0,0-.88.54c-.31.46,0,.14,0,.66s-2.2,1.54-2.4,3.34-1.79,8.2-2,13,1,10.24,1,12.16,1.81,8.32,2.88,12.8A60,60,0,0,0,45,80.35a1.7,1.7,0,0,0-.21,2.45c1.07,1.49,3.63,9,3.41,11.52s.35,16.25.49,21.46-.29,14-.14,15.77,7.09,4.49,16.06,5.21S79,134,80.85,132.73s-1.3-8.54-2.17-13-.14-17.51,1.74-22.29,2.75-9.55,4.05-14.47,0-7.09,0-7.09-.19-7.46,1.51-11,3.41-11.54,5-18.63,1.84-10.89,4.33-11.54,3.54-1.71,3.54-3.94-.39-3.67-1.31-3.93a4.87,4.87,0,0,0-2.36.26,1.65,1.65,0,0,0-.73-.41c-.36-.05-1,.41-1,.41a.48.48,0,0,0-.52-.46,1.08,1.08,0,0,0-.75.18s.57-.8.31-1.32-1.6-.18-2.17-.05a4.37,4.37,0,0,0-2.32,1c-.64.7-2.55,1.47-1.88,3s1.62,4,1.32,5.55-5.84,19.11-7.17,21.85a91.88,91.88,0,0,0-4.73,14.44c-.58,3.15-.91,3.49-.91,3.49s-1,.08-1.74,2.66-1,4.56-2.49,4.4-1.68-1.9-4.29-1.7S62,74.74,62,74.74,53.38,74.41,51.72,70s-3-7.88-2.82-10.71-1.66-11.2-2.16-15.52-1.24-5.56,1.66-6.22S53.21,36.56,51.55,31.37Z"/><path class="cls-1" d="M52,163.05c-1.06-9.2-2.11-28.2-1.51-33.63l30.59-.92c1.24,6.35,4.4,33,5,42.39-6.33,4.67-15.53.91-19.15-5.88C60.58,169.84,54.7,167,52,163.05Z"/><path class="cls-1" d="M53.79,160.64c.6,3.77.75,10.1,1.36,12.67s.15,19.76-1.36,23.23,5.58,8.29,6.33,3.17a133.7,133.7,0,0,1,3.17-15.84c1.36-4.83.3-5.88.45-9.65s3.62-6.64,1.66-13.12S53.19,152.8,53.79,160.64Z"/><path class="cls-1" d="M71.14,166.67c1,3.95,2.71,8.9,3.47,12.22s1.21,13.42,2.41,17.8,2.1,8.35.48,12.71,6.31,5.09,6.31-.34A99.43,99.43,0,0,1,85,191.55c1.06-5.73-.3-17.34-2-21.11S71.14,162.15,71.14,166.67Z"/><path class="cls-1" d="M53,196.15a19.8,19.8,0,0,1-6.19,5.29c-2.2,1-6.95,3.09-6.95,5.64s3.71,3,7.15,1.72,6.39-2.61,10-3,5.43-1.31,5.16-4.06-.2-5.51-1.61-5.37-1.76,3.37-3.41,3-3-1.72-2.75-2.68S53.86,194.91,53,196.15Z"/><path class="cls-1" d="M76.83,207.84c-.07,1.79.41,6.05.34,7.7s-.89,6.53-1.1,8A3.06,3.06,0,0,0,79.23,227c2.54.14,6.67-3.16,6.88-6.94s-.27-7.08-.27-9.42-.51-4.94-2-4.67-1.84,4.26-3.29,4.4-1.72-1.17-1.51-2.61S77.45,206.6,76.83,207.84Z"/><path class="cls-1" d="M0,36.86a1.8,1.8,0,0,1,1.68-1.91L162.27,24.65"/><path class="cls-1" d="M162.5,28.25,1.91,38.54A1.8,1.8,0,0,1,0,36.86"/><path class="cls-1" d="M19.75,55.6c8.1,0,14.7-8.52,14.7-19s-6.61-19-14.7-19S5,26.18,5,36.63,11.66,55.6,19.75,55.6Z"/><path class="cls-1" d="M24.6,55.18c8.1,0,14.7-8.52,14.7-19s-6.61-19-14.7-19-14.7,8.52-14.7,19S16.5,55.18,24.6,55.18Z"/><polygon class="cls-1" points="24.6 17.23 18.82 17.7 19.75 55.6 25.53 55.14 24.6 17.23"/><path class="cls-1" d="M138,0c-5.42,0-9.85,12.54-9.85,27.92s4.42,27.92,9.85,27.92,9.85-12.54,9.85-27.92"/><path class="cls-1" d="M132,0c-5.42,0-9.85,12.54-9.85,27.92s4.42,27.92,9.85,27.92,9.85-12.54,9.85-27.92S137.38,0,132,0"/><polyline class="cls-1" points="138.03 0 138.03 55.84 131.96 55.86 131.96 0.02"/><path class="cls-1" d="M138,0c-5.42,0-9.85,12.54-9.85,27.92s4.42,27.92,9.85,27.92,9.85-12.54,9.85-27.92S143.46,0,138,0"/></g></g></svg>