<svg xmlns="http://www.w3.org/2000/svg" viewBox="0 0 166.32 45.2"><defs><style>.cls-1{fill:#4d4d4d;fill-rule:evenodd;}</style></defs><title>Asset 4</title><g id="Layer_2" data-name="Layer 2"><g id="OBJECTS"><path class="cls-1" d="M0,21.77a15.2,15.2,0,0,0,3,0s.13,3.15,1.71,3.94,5,1.31,5.13,3.15.39,3.94,1.58,3.29,3.15.13,5,1.18,4.73,2.76,5.91-.26,4.73-10.25,5.39-14.59-1.45-7.1-5.13-9.86S16,3.76,12.22,4c-3,0-6.44,3-9.33,6.7"/><path class="cls-1" d="M22.47,8.63c2.89,1.31,3.55,1.71,4.34,0a15.36,15.36,0,0,1,6.31-6.44A27.62,27.62,0,0,1,45.34.08,86.12,86.12,0,0,0,56.12.74,120.61,120.61,0,0,1,71.76,1.92,19.79,19.79,0,0,0,82.4.87C85,.08,90.81-.57,94.49,1.79a72,72,0,0,0,14.06,6.57c4.07,1.31,9.73,1.84,12.75.66s10.33-3.13,14.63-2,8.86,1.68,11.57,1.31a32.23,32.23,0,0,1,3.64-.37s-.84-.37,1.21-.84,4.85-.93,4.95.19a6.22,6.22,0,0,0,.37,1.77,7.65,7.65,0,0,1,3.83-1c2.24,0,3.55-.28,4.29,1.87s.37,5.41.28,8,.84,8.68-.37,10.17-7.93,2.8-9.42,2.52-2.89-2.24-2.89-2.24-4.48,1-5.41-.93-.47-2.71,1.4-3.36,1.49-2.52,1-3.92-.93-2.43-.93-2.43a3.58,3.58,0,0,0-3.83-.56,59.41,59.41,0,0,1-11.76,2.33c-1.77,0-7.18,3.17-8.4,3.45a32.8,32.8,0,0,1-5.32,0s-2.33,6.9-4.2,8.4-5.79,1.59-9.33.65-12.69.37-16.14-.93-8.12-5.41-8.12-5.41l-4.08,1s-.75,4-1.65,6.9-3.3,7.2-3.75,9-3,1.8-5.1,1.95-5.25.45-7,.6a7.82,7.82,0,0,1-3.45-.6s-1.61,1-2.29.6a2.19,2.19,0,0,1-.88-.8s-2.18,1-2.64.21S51.2,43,53.34,42.39a29.29,29.29,0,0,0,4.91-2.05c1.22-.59,1.09-1.13,3.94-1.09s5.16.54,6.21-.88,2.39-10.27,2.39-10.27-5.58-.84-7.09-1-7.3,1.47-9.14,1.09-8.9-2.49-8.9-2.49A15.84,15.84,0,0,1,45,30.88c-.75,1.75-4.54,2.71-5.54,2.66s-1.17-1.12-1.17-1.12-4.16.37-5.79.54a7.85,7.85,0,0,1-3.16-.42s-1.83.37-2-.42,1.83-1,3-1.12a62.11,62.11,0,0,0,6.49-2.08c1.91-.62,4.62-1.75,4.87-2.87A9.48,9.48,0,0,0,42,24.72s-3.37-.54-5-.58-10.57,3.21-14,6S9.23,6.56,22.47,8.63Z"/></g></g></svg>