<svg xmlns="http://www.w3.org/2000/svg" viewBox="0 0 264.59 106.73"><defs><style>.cls-1,.cls-2{fill:#4d4d4d;}.cls-1{fill-rule:evenodd;}</style></defs><title>Asset 5</title><g id="Layer_2" data-name="Layer 2"><g id="OBJECTS"><path class="cls-1" d="M181.52,22.64c-.68.93-1.54,3.71-2.1,4.45S175,29,175,29a2.11,2.11,0,0,0,1.05-1.36c.25-1-.25-.93-.25-.93s.68-.43.62-1a2.44,2.44,0,0,0-.56-1.17s.62-.31.56-.74A4,4,0,0,0,175.9,22c-.49-.93-.8-2.1-2.35-1.61a7.27,7.27,0,0,1-3.27.12s-2.16-.43-2.35.49-.49,4.39-1.73,5.13S155.7,29.31,154,29.44s-3.58.31-3.58.31.07-1.61-1.88-3.55a12.28,12.28,0,0,0-3.66-2.63s3.32-1.72,3-4-2.75-1.49-2.75-1.49a3.69,3.69,0,0,0-3.2-1.14c-2.29.11-2.06.91-2.06.91s-2.06-3-4.35-2.17a3,3,0,0,0-2.29,2.63,3.52,3.52,0,0,0-3.09,1.95,4.65,4.65,0,0,0-.34,3.89l-2.29.57s-5.61-2.06-8.35-2.29a52,52,0,0,0-10.3.69A99.12,99.12,0,0,1,96,24.66a155.32,155.32,0,0,1-16.88-1.49c-2.23-.5-12.54-2.48-16.51,1.61A22.62,22.62,0,0,0,56.42,36.7c-.62,3.48.37,5.34-1.24,7.57s-4.34,9.31-4.72,15.14S49.71,70,47.85,72.2s-10.48,1.92-14.13,3.63-11.41,5.7-17.11,8S3.84,86.21,5,89.63s4.22,8,8.44,4.9S25.17,90,35,87.92,49.35,84,51.74,83.82s4.45-1.6,6.84-5.25,9.35-12,11.4-15.51,4.33-6.73,4.33-6.73,5,4.9,6.62,7.3S83.79,68,83.79,68s-7.53,1.25-12.2,4.11S59.15,81.54,57.33,82.45,50.94,84.5,50,86.78s6.27,8.67,8.55,5.36,5.59-6.39,13.23-8.55a183.22,183.22,0,0,0,19-6.39c4.68-1.94,7.64-6,7.76-9s-3.19-10.49-6-14.6-5-7.87-5-7.87a44,44,0,0,0,7.19,1.71c2.62.23,7.87.34,10.15.69s6.16,2.39,9.92.34,6-6.5,8.67-7.3S127.13,40,127.13,40s-.68,1.83.46,2.17a21.31,21.31,0,0,0,3.65.46c1,.11.59.45,1.26.45s.91.48,1.45,1.09,1.51-.06,2.42-.67a6.11,6.11,0,0,1,3.57-1.09,36.36,36.36,0,0,0,5.39-.91s3.81.67,6.05,1.15,5.33,1.57,11.38-1.21,16-7.45,17.38-8.05,3.09-.42,4.54-1.15a5.36,5.36,0,0,1,3.27-.79c1.51,0,1.09-1.33,1.09-1.33a4.63,4.63,0,0,1,.3-1.27c.24-.54-.36-.91-.36-.91a1.39,1.39,0,0,0,.36-.91,3.37,3.37,0,0,0-.61-1.39,1.68,1.68,0,0,0,.12-2.24,2.78,2.78,0,0,0-3.09-1.27C184.5,22.33,182.44,22,181.52,22.64Z"/><path class="cls-1" d="M7.88,87.17c-.24-.68-2.7-.67-4.8.17s-3.88,2.11-2.7,4,4.89,7.25,6.15,10,1.94,5.39,6.24,5.39,6.49-.08,6.49-1.35-2.78-2.19-3.79-3-1.77-4.55-.84-6,1.26-3,.34-4-6.83,3.29-7.16-.08S10.41,88.61,7.88,87.17Z"/><path class="cls-1" d="M53.81,84.41c-.37-1-2.66-.53-4.22.86s-4.71,2.74-4.3,4.46,6.88,6.1,8.11,8.15,5.92,5.94,8.74,6.56,5.58.61,5.83-1.12-3.84-3.84-4.86-6.75-1.59-5.48-.92-6.81-.72-2.1-2.66-1.13-4.25,1.64-5.83-.1S54.67,86.42,53.81,84.41Z"/><rect class="cls-2" x="169.59" y="0.18" width="5.36" height="93.71"/><rect class="cls-2" x="182.01" y="2.16" width="5.36" height="93.71"/><rect class="cls-2" x="164.98" y="88.29" width="86.59" height="11.5"/><rect class="cls-2" x="178.01" y="92.52" width="86.59" height="11.5"/><rect class="cls-2" x="244.18" y="81.44" width="5.36" height="17"/><rect class="cls-2" x="257.2" y="83.3" width="5.36" height="17"/><path class="cls-1" d="M221.81,61.4c12.29,0,22.32-.68,22.32-1.52s-10-1.52-22.32-1.52-22.32.68-22.32,1.52S209.51,61.4,221.81,61.4Z"/><path class="cls-1" d="M221.81,66.74c12.29,0,22.32-.68,22.32-1.52s-10-1.52-22.32-1.52-22.32.68-22.32,1.52S209.51,66.74,221.81,66.74Z"/><rect class="cls-2" x="199.48" y="59.88" width="44.65" height="5.34"/><path class="cls-1" d="M221.81,67.74c12.29,0,22.32-.68,22.32-1.52s-10-1.52-22.32-1.52-22.32.68-22.32,1.52S209.51,67.74,221.81,67.74Z"/><path class="cls-1" d="M221.81,73.08c12.29,0,22.32-.68,22.32-1.52S234.1,70,221.81,70s-22.32.68-22.32,1.52S209.51,73.08,221.81,73.08Z"/><rect class="cls-2" x="199.48" y="66.22" width="44.65" height="5.34"/><path class="cls-1" d="M221.81,74.07c12.29,0,22.32-.68,22.32-1.52S234.1,71,221.81,71s-22.32.68-22.32,1.52S209.51,74.07,221.81,74.07Z"/><path class="cls-1" d="M221.81,79.41c12.29,0,22.32-.68,22.32-1.52s-10-1.52-22.32-1.52-22.32.68-22.32,1.52S209.51,79.41,221.81,79.41Z"/><rect class="cls-2" x="199.48" y="72.55" width="44.65" height="5.34"/><path class="cls-1" d="M221.81,80.41c12.29,0,22.32-.68,22.32-1.52s-10-1.52-22.32-1.52-22.32.68-22.32,1.52S209.51,80.41,221.81,80.41Z"/><path class="cls-1" d="M221.81,85.75c12.29,0,22.32-.68,22.32-1.52s-10-1.52-22.32-1.52-22.32.68-22.32,1.52S209.51,85.75,221.81,85.75Z"/><rect class="cls-2" x="199.48" y="78.89" width="44.65" height="5.34"/><path class="cls-1" d="M221.81,86.74c12.29,0,22.32-.68,22.32-1.52s-10-1.52-22.32-1.52-22.32.68-22.32,1.52S209.51,86.74,221.81,86.74Z"/><path class="cls-1" d="M221.81,92.08c12.29,0,22.32-.68,22.32-1.52S234.1,89,221.81,89s-22.32.68-22.32,1.52S209.51,92.08,221.81,92.08Z"/><rect class="cls-2" x="199.48" y="85.22" width="44.65" height="5.34"/><ellipse class="cls-2" cx="259.88" cy="83.3" rx="2.68" ry="0.18"/><ellipse class="cls-2" cx="246.86" cy="81.44" rx="2.68" ry="0.18"/><rect class="cls-2" x="219.12" y="48.57" width="5.36" height="17"/><ellipse class="cls-2" cx="221.81" cy="48.57" rx="2.68" ry="0.18"/><ellipse class="cls-2" cx="184.69" cy="2.16" rx="2.68" ry="0.18"/><ellipse class="cls-2" cx="172.27" cy="0.18" rx="2.68" ry="0.18"/></g></g></svg>