<svg xmlns="http://www.w3.org/2000/svg" viewBox="0 0 132.13 128.81"><defs><style>.cls-1{fill:#4d4d4d;fill-rule:evenodd;}</style></defs><title>Asset 2</title><g id="Layer_2" data-name="Layer 2"><g id="OBJECTS"><path class="cls-1" d="M10.8,110.31c-1,2.12-6.11,8.73-7.61,10.23s-4.49,4.37-1.87,6.86,10.1,1.25,11-.37,3.49-1,3.37-3.74,1.5-6.36,2.74-7.24-1.37-.87-4-.12-2.87-1.25-2.12-2.37S12.17,108.56,10.8,110.31Z"/><path class="cls-1" d="M110,77.13c1.68,1.18,3,2.68,3.2,4.27.3,2.91-1.4,9.53-1.4,9.53l.5.5a6.82,6.82,0,0,0-.6,4.41c.5,2.51-.4,7.92-.8,10.63s-1.1,7.32,2.51,7.62,4.11-3.11,6.42-9.53a78.27,78.27,0,0,1,5.82-12.24l2.81-.4s-.4-5.22-.4-8.43,1.81-9.13.2-10.83S115.9,60.24,115.9,60.24s2-1.7,3.91-6.82,5.62-11.13,6.62-17,1.2-7.52-1.81-8.83c-2.78-1.2-10.68-2.15-14.64-2.92V36.32c1.69-1.07,3.88-.49,5.49-.49a12.59,12.59,0,0,1,3.47.58S117,45,116.15,48.35,114.8,54.22,113,54a11.54,11.54,0,0,0-3,.31ZM84,7.44c-1.12,5-.7,7-.7,7s-.28,2.94,1.12,4.62a5.51,5.51,0,0,0,2.66,2s0,2.24-3.92,3.22-6.3,2.66-10.22,4.62C71,29.82,66.05,32.41,61.1,35V46.75a73.76,73.76,0,0,0,7.5-3s-5.29,5.2-6.93,6.83a4.63,4.63,0,0,0-.57.72V81.73c.72-.35,1-.45,1-.45a.68.68,0,0,0,.82-.05.66.66,0,0,0,.33-.76l.73-.54s.27.16.84-.22.46-.73.46-.73a47.32,47.32,0,0,0,4.13-3.37c1.82-1.71,7.87-6.64,11.39-7.84s4.71-1.7,8.83.4a158.7,158.7,0,0,0,16,6.82A16.27,16.27,0,0,1,110,77.13V54.34a3.74,3.74,0,0,1-1.54-.12c-1.64-.48-4.91-1.93-5.29-1.35s-1.25-.58-2.12-2.21a31.25,31.25,0,0,0,2.12-6.55c.38-2.7,4.72-6.06,6.45-7.51a3.64,3.64,0,0,1,.39-.28V24.72l-.91-.19a58.31,58.31,0,0,0-6.82-1.1s1.1-1.2,1.1-4.51a57.27,57.27,0,0,0-.3-8.33C101-5.56,85.72-.41,84,7.44ZM61.1,35C55.9,37.73,50.7,40.46,49,41.32,45.62,43,44.92,46.78,46.46,54.2a141.72,141.72,0,0,0,3.78,14.14s-5.46,8-7.84,10.92-9.08,8.18-12.57,10.39a38.3,38.3,0,0,0-6.86,6l.81.47s-6.51,6.4-9.42,10.47-8,9.77-4.54,11.05,7-4,10.24-6.28a124.33,124.33,0,0,1,11.4-6.4,26.07,26.07,0,0,0,4,2.56c1,.35,3.84-5.12,6.75-8.61S58,83.37,59.73,82.44c.57-.3,1-.53,1.37-.7V51.28c-1.37,2.08-2.46,6.18-2.8,7.37-.38,1.35-3.08,3.95-3.08,3.95S54.45,56,54,53.16s-.77-3.75,1-4.43c1-.39,3.22-1,6.17-2Z"/><path class="cls-1" d="M10.52,108.19c-1,2.12-6.11,8.73-7.61,10.23s-4.49,4.37-1.87,6.86,10.1,1.25,11-.37,3.49-1,3.37-3.74,1.5-6.36,2.74-7.24-1.37-.87-4-.12-2.87-1.25-2.12-2.37S11.89,106.44,10.52,108.19Z"/><path class="cls-1" d="M108.34,108c.49,1.94-1.94,4.37-2.43,6.17s.07,5.13,2.77,5.75,7.21-.55,10.68.83,12.55,2,12.76-.42-5.27-5.13-8.32-7.49-4.92-3.05-4.3-4.51-2.15-1.46-3.12.9-4,2.7-4.37.69S107.72,105,108.34,108Z"/></g></g></svg>